<svg xmlns="http://www.w3.org/2000/svg" viewBox="0 0 625 386" width="625" height="386" xmlns:c2pa="http://c2pa.org/manifest"><metadata><c2pa:manifest>AAAWgmp1bWIAAAAeanVtZGMycGEAEQAQgAAAqgA4m3EDYzJwYQAAABZcanVtYgAAAEdqdW1kYzJtYQARABCAAACqADibcQN1cm46YzJwYTphOTg2M2I5Zi1kNjUyLTRlN2YtOTdkMC1hZTA1MTYwZTI0Y2EAAAADl2p1bWIAAAApanVtZGMyYXMAEQAQgAAAqgA4m3EDYzJwYS5hc3NlcnRpb25zAAAAALxqdW1iAAAARGp1bWRjYm9yABEAEIAAAKoAOJtxE2MycGEuaW5ncmVkaWVudC52MwAAAAAYYzJzaGBTRnhpR9y1GTNwgIhOboYAAABwY2JvcqNpZGM6Zm9ybWF0bWltYWdlL3N2Zyt4bWxqaW5zdGFuY2VJRHgseG1wOmlpZDo2OWQwZTkxOS0wNTZjLTRiNTYtYWVjMS1lMGJhODU1YTMyMjJscmVsYXRpb25zaGlwaHBhcmVudE9mAAAB4mp1bWIAAABBanVtZGNib3IAEQAQgAAAqgA4m3ETYzJwYS5hY3Rpb25zLnYyAAAAABhjMnNo5GmeQKM+3iAQVKbD/6+67AAAAZljYm9yomdhY3Rpb25zgqJmYWN0aW9ua2MycGEub3BlbmVkanBhcmFtZXRlcnOha2luZ3JlZGllbnRzgaJjdXJseC1zZWxmI2p1bWJmPWMycGEuYXNzZXJ0aW9ucy9jMnBhLmluZ3JlZGllbnQudjNkaGFzaFggCJ/KKcSPAfAUvi0NamUtopNa7NypTQHxyW1D4tA10fmkZmFjdGlvbngdY29tLmFudGhyb3BpYy5jbGF1ZGUucHJvdmlkZWRqcGFyYW1ldGVyc6F4H2NvbS5hbnRocm9waWMub3JpZ2luLWNvbmZpZGVuY2VndW5rbm93bmtkZXNjcmlwdGlvbnhmQ2xhdWRlIHByb3ZpZGVkIHRoaXMgZmlsZSBhdCB0aGUgcmVxdWVzdCBvZiBhIHVzZXIgYW5kIG1heSBoYXZlIGNyZWF0ZWQgb3IgbW9kaWZpZWQgdGhlIGZpbGUgY29udGVudHMubXNvZnR3YXJlQWdlbnShZG5hbWVmQ2xhdWRlcmFsbEFjdGlvbnNJbmNsdWRlZPUAAADIanVtYgAAAEBqdW1kY2JvcgARABCAAACqADibcRNjMnBhLmhhc2guZGF0YQAAAAAYYzJzaDAOb+9fCEZzkqHKAI2IKzgAAACAY2JvcqVjYWxnZnNoYTI1NmNwYWRNAAAAAAAAAAAAAAAAAGRoYXNoWCCFVXm0/Z/7fV2n5Nhpv3AEtcaQ8g0EoSO8zCx6gv0HbmRuYW1lbmp1bWJmIG1hbmlmZXN0amV4Y2x1c2lvbnOBomVzdGFydBiWZmxlbmd0aBkeBAAAAj5qdW1iAAAAJ2p1bWRjMmNsABEAEIAAAKoAOJtxA2MycGEuY2xhaW0udjIAAAACD2Nib3KlY2FsZ2ZzaGEyNTZpc2lnbmF0dXJleE1zZWxmI2p1bWJmPS9jMnBhL3VybjpjMnBhOmE5ODYzYjlmLWQ2NTItNGU3Zi05N2QwLWFlMDUxNjBlMjRjYS9jMnBhLnNpZ25hdHVyZWppbnN0YW5jZUlEeCx4bXA6aWlkOjUyZWU5NDM4LWZhZjgtNGU4OC04ZTBiLWQ0ZmFjNThlYjU2NXJjcmVhdGVkX2Fzc2VydGlvbnODomN1cmx4LXNlbGYjanVtYmY9YzJwYS5hc3NlcnRpb25zL2MycGEuaW5ncmVkaWVudC52M2RoYXNoWCAIn8opxI8B8BS+LQ1qZS2ik1rs3KlNAfHJbUPi0DXR+aJjdXJseCpzZWxmI2p1bWJmPWMycGEuYXNzZXJ0aW9ucy9jMnBhLmFjdGlvbnMudjJkaGFzaFggqcmeV6aIRijeQ3svjxl+n/30M5nFkPJxcr8tkT0/lSeiY3VybHgpc2VsZiNqdW1iZj1jMnBhLmFzc2VydGlvbnMvYzJwYS5oYXNoLmRhdGFkaGFzaFgglDKM35OzEFVMG7Uv+KiUqtP4khnDgY5nHweZYNRL4GV0Y2xhaW1fZ2VuZXJhdG9yX2luZm+jZG5hbWVvQW50aHJvcGljIEZpbGVzZ3ZlcnNpb25lMS4wLjBrc3BlY1ZlcnNpb25lMi40LjAAABA4anVtYgAAAChqdW1kYzJjcwARABCAAACqADibcQNjMnBhLnNpZ25hdHVyZQAAABAIY2JvctKEWQISogEmGCFZAgowggIGMIIBjaADAgECAhRA5aAK7sI50L64g/oGQgU9Z1UTADAKBggqhkjOPQQDAzBJMRcwFQYDVQQKEw5BbnRocm9waWMsIFBCQzEuMCwGA1UEAxMlQW50aHJvcGljIENvbnRlbnQgQ3JlZGVudGlhbHMgUm9vdCBDQTAeFw0yNjA4MDcxODQzNTZaFw0yODA4MDYxOTQzNTZaMEQxFzAVBgNVBAoTDkFudGhyb3BpYywgUEJDMSkwJwYDVQQDEyBBbnRocm9waWMgQ2xhdWRlIENvbnRlbnQgU2lnbmluZzBZMBMGByqGSM49AgEGCCqGSM49AwEHA0IABJh6CmvLUBgFFNU0vUKlOVtE6djd17L5SuwX0LemFisBM3dkd/3cyjxFA3Qo5S46fX0/ihY0VZ7mfb9KF703t5OjWDBWMA4GA1UdDwEB/wQEAwIHgDAVBgNVHSUEDjAMBgorBgEEAYPoXgIBMAwGA1UdEwEB/wQCMAAwHwYDVR0jBBgwFoAUzlHiBIFOZFsj+OPEz5o+nMHXXMIwCgYIKoZIzj0EAwMDZwAwZAIwMXMdFJ4BetLLVY7ORuE9noqbbAZOZn/aArXyTwFAZfKrPzxF2vPoJNf1+UCdg1XGAjBwX1zd9WGqYkqmL5SFqw1QySjr1zJfpJM9+1rdDwSPLMOPOjKuiXjoU/pUUeG9RwmhY3BhZFkNngAAAAAAAAAAAAAAAAAAAAAAAAAAAAAAAAAAAAAAAAAAAAAAAAAAAAAAAAAAAAAAAAAAAAAAAAAAAAAAAAAAAAAAAAAAAAAAAAAAAAAAAAAAAAAAAAAAAAAAAAAAAAAAAAAAAAAAAAAAAAAAAAAAAAAAAAAAAAAAAAAAAAAAAAAAAAAAAAAAAAAAAAAAAAAAAAAAAAAAAAAAAAAAAAAAAAAAAAAAAAAAAAAAAAAAAAAAAAAAAAAAAAAAAAAAAAAAAAAAAAAAAAAAAAAAAAAAAAAAAAAAAAAAAAAAAAAAAAAAAAAAAAAAAAAAAAAAAAAAAAAAAAAAAAAAAAAAAAAAAAAAAAAAAAAAAAAAAAAAAAAAAAAAAAAAAAAAAAAAAAAAAAAAAAAAAAAAAAAAAAAAAAAAAAAAAAAAAAAAAAAAAAAAAAAAAAAAAAAAAAAAAAAAAAAAAAAAAAAAAAAAAAAAAAAAAAAAAAAAAAAAAAAAAAAAAAAAAAAAAAAAAAAAAAAAAAAAAAAAAAAAAAAAAAAAAAAAAAAAAAAAAAAAAAAAAAAAAAAAAAAAAAAAAAAAAAAAAAAAAAAAAAAAAAAAAAAAAAAAAAAAAAAAAAAAAAAAAAAAAAAAAAAAAAAAAAAAAAAAAAAAAAAAAAAAAAAAAAAAAAAAAAAAAAAAAAAAAAAAAAAAAAAAAAAAAAAAAAAAAAAAAAAAAAAAAAAAAAAAAAAAAAAAAAAAAAAAAAAAAAAAAAAAAAAAAAAAAAAAAAAAAAAAAAAAAAAAAAAAAAAAAAAAAAAAAAAAAAAAAAAAAAAAAAAAAAAAAAAAAAAAAAAAAAAAAAAAAAAAAAAAAAAAAAAAAAAAAAAAAAAAAAAAAAAAAAAAAAAAAAAAAAAAAAAAAAAAAAAAAAAAAAAAAAAAAAAAAAAAAAAAAAAAAAAAAAAAAAAAAAAAAAAAAAAAAAAAAAAAAAAAAAAAAAAAAAAAAAAAAAAAAAAAAAAAAAAAAAAAAAAAAAAAAAAAAAAAAAAAAAAAAAAAAAAAAAAAAAAAAAAAAAAAAAAAAAAAAAAAAAAAAAAAAAAAAAAAAAAAAAAAAAAAAAAAAAAAAAAAAAAAAAAAAAAAAAAAAAAAAAAAAAAAAAAAAAAAAAAAAAAAAAAAAAAAAAAAAAAAAAAAAAAAAAAAAAAAAAAAAAAAAAAAAAAAAAAAAAAAAAAAAAAAAAAAAAAAAAAAAAAAAAAAAAAAAAAAAAAAAAAAAAAAAAAAAAAAAAAAAAAAAAAAAAAAAAAAAAAAAAAAAAAAAAAAAAAAAAAAAAAAAAAAAAAAAAAAAAAAAAAAAAAAAAAAAAAAAAAAAAAAAAAAAAAAAAAAAAAAAAAAAAAAAAAAAAAAAAAAAAAAAAAAAAAAAAAAAAAAAAAAAAAAAAAAAAAAAAAAAAAAAAAAAAAAAAAAAAAAAAAAAAAAAAAAAAAAAAAAAAAAAAAAAAAAAAAAAAAAAAAAAAAAAAAAAAAAAAAAAAAAAAAAAAAAAAAAAAAAAAAAAAAAAAAAAAAAAAAAAAAAAAAAAAAAAAAAAAAAAAAAAAAAAAAAAAAAAAAAAAAAAAAAAAAAAAAAAAAAAAAAAAAAAAAAAAAAAAAAAAAAAAAAAAAAAAAAAAAAAAAAAAAAAAAAAAAAAAAAAAAAAAAAAAAAAAAAAAAAAAAAAAAAAAAAAAAAAAAAAAAAAAAAAAAAAAAAAAAAAAAAAAAAAAAAAAAAAAAAAAAAAAAAAAAAAAAAAAAAAAAAAAAAAAAAAAAAAAAAAAAAAAAAAAAAAAAAAAAAAAAAAAAAAAAAAAAAAAAAAAAAAAAAAAAAAAAAAAAAAAAAAAAAAAAAAAAAAAAAAAAAAAAAAAAAAAAAAAAAAAAAAAAAAAAAAAAAAAAAAAAAAAAAAAAAAAAAAAAAAAAAAAAAAAAAAAAAAAAAAAAAAAAAAAAAAAAAAAAAAAAAAAAAAAAAAAAAAAAAAAAAAAAAAAAAAAAAAAAAAAAAAAAAAAAAAAAAAAAAAAAAAAAAAAAAAAAAAAAAAAAAAAAAAAAAAAAAAAAAAAAAAAAAAAAAAAAAAAAAAAAAAAAAAAAAAAAAAAAAAAAAAAAAAAAAAAAAAAAAAAAAAAAAAAAAAAAAAAAAAAAAAAAAAAAAAAAAAAAAAAAAAAAAAAAAAAAAAAAAAAAAAAAAAAAAAAAAAAAAAAAAAAAAAAAAAAAAAAAAAAAAAAAAAAAAAAAAAAAAAAAAAAAAAAAAAAAAAAAAAAAAAAAAAAAAAAAAAAAAAAAAAAAAAAAAAAAAAAAAAAAAAAAAAAAAAAAAAAAAAAAAAAAAAAAAAAAAAAAAAAAAAAAAAAAAAAAAAAAAAAAAAAAAAAAAAAAAAAAAAAAAAAAAAAAAAAAAAAAAAAAAAAAAAAAAAAAAAAAAAAAAAAAAAAAAAAAAAAAAAAAAAAAAAAAAAAAAAAAAAAAAAAAAAAAAAAAAAAAAAAAAAAAAAAAAAAAAAAAAAAAAAAAAAAAAAAAAAAAAAAAAAAAAAAAAAAAAAAAAAAAAAAAAAAAAAAAAAAAAAAAAAAAAAAAAAAAAAAAAAAAAAAAAAAAAAAAAAAAAAAAAAAAAAAAAAAAAAAAAAAAAAAAAAAAAAAAAAAAAAAAAAAAAAAAAAAAAAAAAAAAAAAAAAAAAAAAAAAAAAAAAAAAAAAAAAAAAAAAAAAAAAAAAAAAAAAAAAAAAAAAAAAAAAAAAAAAAAAAAAAAAAAAAAAAAAAAAAAAAAAAAAAAAAAAAAAAAAAAAAAAAAAAAAAAAAAAAAAAAAAAAAAAAAAAAAAAAAAAAAAAAAAAAAAAAAAAAAAAAAAAAAAAAAAAAAAAAAAAAAAAAAAAAAAAAAAAAAAAAAAAAAAAAAAAAAAAAAAAAAAAAAAAAAAAAAAAAAAAAAAAAAAAAAAAAAAAAAAAAAAAAAAAAAAAAAAAAAAAAAAAAAAAAAAAAAAAAAAAAAAAAAAAAAAAAAAAAAAAAAAAAAAAAAAAAAAAAAAAAAAAAAAAAAAAAAAAAAAAAAAAAAAAAAAAAAAAAAAAAAAAAAAAAAAAAAAAAAAAAAAAAAAAAAAAAAAAAAAAAAAAAAAAAAAAAAAAAAAAAAAAAAAAAAAAAAAAAAAAAAAAAAAAAAAAAAAAAAAAAAAAAAAAAAAAAAAAAAAAAAAAAAAAAAAAAAAAAAAAAAAAAAAAAAAAAAAAAAAAAAAAAAAAAAAAAAAAAAAAAAAAAAAAAAAAAAAAAAAAAAAAAAAAAAAAAAAAAAAAAAAAAAAAAAAAAAAAAAAAAAAAAAAAAAAAAAAAAAAAAAAAAAAAAAAAAAAAAAAAAAAAAAAAAAAAAAAAAAAAAAAAAAAAAAAAAAAAAAAAAAAAAAAAAAAAAAAAAAAAAAAAAAAAAAAAAAAAAAAAAAAAAAAAAAAAAAAAAAAAAAAAAAAAAAAAAAAAAAAAAAAAAAAAAAAAAAAAAAAAAAAAAAAAAAAAAAAAAAAAAAAAAAAAAAAAAAAAAAAAAAAAAAAAAAAAAAAAAAAAAAAAAAAAAAAAAAAAAAAAAAAAAAAAAAAAAAAAAAAAAAAAAAAAAAAAAAAAAAAAAAAAAAAAAAAAAAAAAAAAAAAAAAAAAAAAAAAAAAAAAAAAAAAAAAAAAAAAAAAAAAAAAAAAAAAAAAAAAAAAAAAAAAAAAAAAAAAAAAAAAAAAAAAAAAAAAAAAAAAAAAAAAAAAAAAAAAAAAAAAAAAAAAAAAAAAAAAAAAAAAAAAAAAAAAAAAAAAAAAAAAAAAAAAAAAAAAAAAAAAAAAAAAAAAAAAAAAAAAAAAAAAAAAAAAAAAAAAAAAAAAAAAAAAAAAAAAAAAAAAAAAAAAAAAAAAAAAAAAAAAAAAAAAAAAAAAAAAAAAAAAAAAAAAAAAAAAAAAAAAAAAAAAAAAAAAAAAAAAAAAAAAAAAAAAAAAAAAAAAAAAAAAAAAAAAAAAAAAAAAAAAAAAAAAAAAAAAAAAAAAAAAAAAAAAAAAAAAAAAAAAAAAAAAAAAAAAAAAAAAAAAAAAAAAAAAAAAAAAAAAAAAAAAAAAAAAAAAAAAAAAAAAAAAAAAAAAAAAAAAAAAAAAAAAAAAAAAAAAAAAAAAAAAAAAAAAAAAAAAAAAAAAAAAAAAAAAAAAAAAAAAAAAAAAAAAAAAAAAAAAAAAAAAAAAAAAAAAAAAAAAAAAAAAAAAAAAAAAAAAAAAAAAAAAAAAAAAAAAAAAAAAAAAAAAAAAAAAAAAAAAAAAAAAAAAAAAAAAAAAAAAAAAAAAAAAAAAAAAAAAAAAAAAAAAAAAAAAAAAAAAAAAAAAAAAAAAAAAAAAAAAAAAAAAAAAAAAAAAAAAAAAAAAAAAAAAAAAAAAAAAAAAAAAAAAAAAAAAAAAAAAAAAAAAAAAAAAAAAAAAAAAAAAAAAAAAAAAAAAAAAAAAAAAAAAAAAAAAAAAAAAAAAAAAAAAAAAAAAAAAAAAAAAAAAAAAAAAAAAAAAAAAAAAAAAAAAAAAAAAAAAAAAAAAAAAAAAAAAAAAAAAAAAAAAAAAAAAAAAAAAAAAAAAAAAAAAAAAAAAAAAAAAAAAAAAAAAAAAAAAAAAAAAAAAAAAAAAAAAAAAAAAAAAAAAAAAAAAAAAAAAAAAAAAAPZYQDMoXwCmPZfutWmv/af+tSC+A0HRC60QURAclkp33GcHS7XPrsZuIrx3zBKeIDdUpe7tS3Rfqmykh5sEgaBd5Kk=</c2pa:manifest></metadata>
  <title>Mudassar Qureshi MQ_logo_clean.svg</title>
  <g fill="#FACC15" fill-rule="evenodd">
    <path d="M 395 253 L 395 255 L 523 385 L 607 385 L 607 383 L 477 253 Z"/> <path d="M 257 220 L 257 228 L 258 229 L 258 235 L 259 236 L 260 245 L 261 246 L 262 253 L 264 257 L 264 260 L 265 261 L 265 263 L 266 264 L 267 269 L 269 272 L 269 274 L 271 277 L 271 279 L 280 297 L 282 299 L 283 302 L 285 304 L 285 305 L 287 307 L 287 308 L 289 310 L 291 314 L 298 322 L 298 323 L 305 330 L 305 331 L 321 346 L 322 346 L 329 352 L 330 352 L 341 360 L 348 363 L 350 365 L 360 370 L 362 370 L 370 374 L 372 374 L 373 375 L 375 375 L 376 376 L 378 376 L 382 378 L 385 378 L 386 379 L 393 380 L 394 381 L 398 381 L 399 382 L 404 382 L 405 383 L 412 383 L 413 384 L 449 384 L 450 383 L 457 383 L 458 382 L 463 382 L 464 381 L 467 381 L 468 380 L 472 380 L 473 379 L 480 378 L 481 377 L 483 377 L 484 376 L 487 376 L 488 375 L 490 375 L 492 374 L 492 371 L 443 321 L 432 321 L 431 322 L 429 322 L 428 321 L 418 321 L 417 320 L 412 320 L 411 319 L 407 319 L 406 318 L 399 317 L 398 316 L 396 316 L 395 315 L 390 314 L 387 312 L 385 312 L 375 307 L 373 305 L 370 304 L 367 301 L 363 299 L 349 285 L 349 284 L 345 280 L 345 279 L 341 274 L 339 269 L 336 265 L 336 263 L 333 258 L 333 256 L 332 255 L 332 253 L 331 252 L 331 250 L 329 246 L 329 243 L 328 242 L 328 154 L 326 154 L 309 171 L 308 171 L 288 191 L 287 191 Z"/> <path d="M 613 128 L 611 125 L 611 123 L 608 118 L 608 116 L 600 100 L 598 98 L 594 90 L 592 88 L 590 84 L 587 81 L 585 77 L 582 74 L 582 73 L 577 68 L 577 67 L 557 47 L 556 47 L 546 38 L 545 38 L 543 36 L 542 36 L 531 28 L 528 27 L 526 25 L 510 17 L 508 17 L 503 14 L 501 14 L 498 12 L 496 12 L 495 11 L 493 11 L 492 10 L 490 10 L 489 9 L 487 9 L 483 7 L 480 7 L 479 6 L 475 6 L 474 5 L 471 5 L 470 4 L 466 4 L 465 3 L 460 3 L 459 2 L 453 2 L 452 1 L 441 1 L 440 0 L 419 0 L 418 1 L 408 1 L 407 2 L 401 2 L 400 3 L 395 3 L 394 4 L 391 4 L 390 5 L 386 5 L 385 6 L 378 7 L 377 8 L 375 8 L 374 9 L 372 9 L 371 10 L 369 10 L 368 11 L 366 11 L 365 12 L 360 13 L 357 15 L 355 15 L 333 26 L 331 28 L 328 29 L 326 31 L 325 31 L 323 33 L 322 33 L 320 35 L 316 37 L 313 40 L 312 40 L 309 43 L 308 43 L 303 48 L 302 48 L 290 60 L 289 60 L 277 72 L 276 72 L 264 84 L 263 84 L 249 98 L 248 98 L 234 112 L 233 112 L 220 125 L 219 125 L 206 138 L 205 138 L 190 153 L 189 153 L 183 159 L 178 154 L 177 154 L 172 149 L 171 149 L 165 143 L 164 143 L 159 138 L 158 138 L 151 131 L 150 131 L 138 120 L 137 120 L 131 114 L 130 114 L 124 108 L 123 108 L 117 102 L 116 102 L 111 97 L 110 97 L 103 90 L 102 90 L 97 85 L 96 85 L 89 78 L 88 78 L 76 67 L 75 67 L 70 62 L 69 62 L 63 56 L 62 56 L 57 51 L 56 51 L 50 45 L 49 45 L 45 41 L 44 41 L 41 38 L 40 38 L 26 26 L 25 26 L 22 23 L 21 23 L 18 20 L 17 20 L 13 16 L 9 14 L 6 11 L 4 10 L 2 10 L 2 21 L 1 22 L 1 117 L 0 118 L 0 361 L 66 361 L 66 310 L 65 309 L 65 141 L 64 140 L 65 139 L 66 139 L 80 152 L 81 152 L 90 161 L 91 161 L 100 170 L 101 170 L 111 180 L 112 180 L 121 189 L 122 189 L 131 198 L 132 198 L 142 208 L 143 208 L 152 217 L 153 217 L 162 226 L 163 226 L 181 243 L 185 243 L 187 242 L 203 226 L 204 226 L 237 194 L 238 194 L 254 178 L 255 178 L 270 163 L 271 163 L 286 148 L 287 148 L 300 135 L 301 135 L 317 119 L 318 119 L 343 95 L 344 95 L 349 90 L 350 90 L 361 82 L 366 80 L 368 78 L 376 74 L 378 74 L 381 72 L 386 71 L 389 69 L 392 69 L 393 68 L 395 68 L 396 67 L 399 67 L 400 66 L 404 66 L 405 65 L 410 65 L 411 64 L 418 64 L 419 63 L 439 63 L 440 64 L 448 64 L 449 65 L 454 65 L 455 66 L 458 66 L 459 67 L 462 67 L 463 68 L 466 68 L 467 69 L 472 70 L 475 72 L 477 72 L 480 74 L 482 74 L 488 77 L 490 79 L 495 81 L 497 83 L 498 83 L 500 85 L 504 87 L 515 97 L 516 97 L 524 105 L 524 106 L 529 111 L 529 112 L 536 120 L 539 126 L 541 128 L 549 144 L 549 146 L 551 149 L 551 151 L 553 155 L 553 158 L 554 159 L 554 162 L 555 163 L 555 166 L 556 167 L 556 171 L 557 172 L 557 178 L 558 179 L 558 208 L 557 209 L 557 216 L 556 217 L 556 221 L 555 222 L 555 225 L 554 226 L 553 233 L 552 234 L 551 239 L 549 242 L 549 244 L 542 258 L 540 260 L 537 266 L 534 269 L 532 273 L 524 282 L 524 284 L 567 327 L 570 327 L 580 317 L 580 316 L 584 312 L 584 311 L 590 304 L 590 303 L 596 295 L 597 292 L 599 290 L 609 270 L 609 268 L 612 263 L 612 261 L 613 260 L 613 258 L 614 257 L 614 255 L 615 254 L 615 252 L 617 248 L 617 245 L 618 244 L 619 237 L 620 236 L 620 232 L 621 231 L 621 227 L 622 226 L 622 221 L 623 220 L 623 213 L 624 212 L 624 177 L 623 176 L 623 168 L 622 167 L 622 162 L 621 161 L 620 152 L 619 151 L 618 144 L 616 140 L 616 137 L 615 136 L 615 134 L 614 133 Z"/>
  </g>
</svg>
